# ProBuilder 5.1.1
# https://unity3d.com/unity/features/worldbuilding/probuilder
# 11/20/2024 3:40:05 PM

mtllib ./Lamp.mtl
o Lamp

g Lamp
v 0.008048831 -0.2777562 6.496271
v 0.1429089 -0.2777566 6.496271
v 0.008048307 -0.1304708 6.496271
v 0.1429083 -0.1304635 6.496271
v 0.14291 -0.277762 -1.986069
v 0.14291 -0.1304727 -1.98607
v 0.008049965 -0.277762 -1.986069
v 0.008049965 -0.1304727 -1.98607

vt -0.008048831 -0.2777562
vt -0.1429089 -0.2777566
vt -0.008048307 -0.1304708
vt -0.1429083 -0.1304635
vt 6.496271 -0.2777571
vt -1.986069 -0.2777625
vt 6.496271 -0.130464
vt -1.98607 -0.1304732
vt 0.14291 -0.2777604
vt 0.008049965 -0.2777604
vt 0.14291 -0.1304711
vt 0.008049965 -0.1304711
vt 1.986069 -0.277762
vt -6.496271 -0.2777562
vt 1.98607 -0.1304727
vt -6.496271 -0.1304708
vt 0.008041316 6.496271
vt 0.1429014 6.496271
vt 0.008042973 -1.98607
vt 0.142903 -1.98607
vt -0.008049965 -1.98607
vt -0.14291 -1.98607
vt -0.008048831 6.496271
vt -0.1429089 6.496271

vn 0 0 1
vn 1 3.540836E-06 1.335091E-07
vn 0 -8.093548E-07 -1
vn -1 -1.082357E-13 -1.337309E-07
vn -5.358936E-05 1 -2.318985E-07
vn 0 -1 6.816103E-07

usemtl Black_Metal_1
f 1/1/1 2/2/1 4/4/1 3/3/1
f 2/5/2 5/6/2 6/8/2 4/7/2
f 5/9/3 7/10/3 8/12/3 6/11/3
f 7/13/4 1/14/4 3/16/4 8/15/4
f 3/17/5 4/18/5 6/20/5 8/19/5
f 7/21/6 5/22/6 2/24/6 1/23/6

