# ProBuilder 5.1.1
# https://unity3d.com/unity/features/worldbuilding/probuilder
# 11/20/2024 3:38:52 PM

mtllib ./Lamp_(2).mtl
o Lamp (2)

g Lamp (2)
v -0.340184 -0.3057838 -0.1562875
v 0.4911439 -0.3057838 -0.1562875
v -0.340184 -0.1024515 -0.1562877
v 0.4911439 -0.1024515 -0.1562877
v 0.4911439 -0.3057833 -0.2507704
v 0.4911439 -0.1024513 -0.2507705
v -0.340184 -0.3057833 -0.2507704
v -0.340184 -0.1024513 -0.2507705

vt 0.340184 -0.3057837
vt -0.4911439 -0.3057837
vt 0.340184 -0.1024514
vt -0.4911439 -0.1024514
vt -0.1562875 -0.3057838
vt -0.2507704 -0.3057833
vt -0.1562877 -0.1024515
vt -0.2507705 -0.1024513
vt 0.4911439 -0.3057831
vt -0.340184 -0.3057831
vt 0.4911439 -0.1024511
vt -0.340184 -0.1024511
vt 0.2507704 -0.3057833
vt 0.1562875 -0.3057838
vt 0.2507705 -0.1024513
vt 0.1562877 -0.1024515
vt -0.340184 -0.1562873
vt 0.4911439 -0.1562873
vt -0.340184 -0.2507702
vt 0.4911439 -0.2507702
vt 0.340184 -0.2507686
vt -0.4911439 -0.2507686
vt 0.340184 -0.1562856
vt -0.4911439 -0.1562856

vn 0 8.794173E-07 1
vn 1 0 0
vn 0 -7.328488E-07 -1
vn -1 0 0
vn 0 1 2.996544E-06
vn 0 -1 -5.993085E-06

usemtl Emission_Red
f 1/1/1 2/2/1 4/4/1 3/3/1
f 2/5/2 5/6/2 6/8/2 4/7/2
f 5/9/3 7/10/3 8/12/3 6/11/3
f 7/13/4 1/14/4 3/16/4 8/15/4
f 3/17/5 4/18/5 6/20/5 8/19/5
f 7/21/6 5/22/6 2/24/6 1/23/6

